<mxfile host="65bd71144e">
    <diagram id="rowNE5GWqs8mnV5xCOfB" name="Page-1">
        <mxGraphModel dx="582" dy="293" grid="1" gridSize="10" guides="1" tooltips="1" connect="1" arrows="1" fold="1" page="1" pageScale="1" pageWidth="850" pageHeight="1100" math="0" shadow="0">
            <root>
                <mxCell id="0"/>
                <mxCell id="1" parent="0"/>
                <mxCell id="3" value="STB EveryWhere" style="swimlane;startSize=20;horizontal=1;containerType=tree;newEdgeStyle={&quot;edgeStyle&quot;:&quot;elbowEdgeStyle&quot;,&quot;startArrow&quot;:&quot;none&quot;,&quot;endArrow&quot;:&quot;none&quot;};" vertex="1" parent="1">
                    <mxGeometry x="60" y="220" width="530" height="530" as="geometry"/>
                </mxCell>
                <mxCell id="5" value="" style="edgeStyle=elbowEdgeStyle;elbow=vertical;startArrow=none;endArrow=none;rounded=0;" edge="1" parent="3" source="6" target="8">
                    <mxGeometry relative="1" as="geometry"/>
                </mxCell>
                <UserObject label="StbEveryWhere" treeRoot="1" id="6">
                    <mxCell style="dashed=0;outlineConnect=0;html=1;align=center;labelPosition=center;verticalLabelPosition=bottom;verticalAlign=top;shape=mxgraph.webicons.chrome;gradientColor=#DFDEDE;fontFamily=Helvetica;fontSize=12;fontColor=rgb(240, 240, 240);strokeColor=rgb(240, 240, 240);fillColor=rgb(42, 42, 42);" vertex="1" parent="3">
                        <mxGeometry x="200" y="30" width="40" height="40" as="geometry"/>
                    </mxCell>
                </UserObject>
                <mxCell id="12" style="edgeStyle=none;html=1;exitX=1;exitY=0.5;exitDx=0;exitDy=0;entryX=0.08;entryY=0.524;entryDx=0;entryDy=0;entryPerimeter=0;" edge="1" parent="3" source="8" target="11">
                    <mxGeometry relative="1" as="geometry"/>
                </mxCell>
                <mxCell id="14" value="Envoyer RIB&lt;br&gt;+ Acces Digital" style="edgeLabel;html=1;align=center;verticalAlign=middle;resizable=0;points=[];" vertex="1" connectable="0" parent="12">
                    <mxGeometry x="0.267" y="-1" relative="1" as="geometry">
                        <mxPoint as="offset"/>
                    </mxGeometry>
                </mxCell>
                <mxCell id="21" style="edgeStyle=none;html=1;entryX=0.442;entryY=0.064;entryDx=0;entryDy=0;entryPerimeter=0;" edge="1" parent="3" source="8" target="19">
                    <mxGeometry relative="1" as="geometry"/>
                </mxCell>
                <mxCell id="24" value="Creation D'acces" style="edgeLabel;html=1;align=center;verticalAlign=middle;resizable=0;points=[];" vertex="1" connectable="0" parent="21">
                    <mxGeometry x="0.1768" y="1" relative="1" as="geometry">
                        <mxPoint as="offset"/>
                    </mxGeometry>
                </mxCell>
                <mxCell id="8" value="Plateform Digital&lt;br&gt;" style="aspect=fixed;html=1;points=[];align=center;image;fontSize=12;image=img/lib/azure2/other/Peering_Service.svg;fontFamily=Helvetica;fontColor=rgb(240, 240, 240);strokeColor=rgb(240, 240, 240);fillColor=rgb(42, 42, 42);" vertex="1" parent="3">
                    <mxGeometry x="186.67" y="170" width="66.67" height="40" as="geometry"/>
                </mxCell>
                <mxCell id="9" value="" style="edgeStyle=elbowEdgeStyle;elbow=vertical;startArrow=none;endArrow=none;rounded=0;exitX=0.802;exitY=1.042;exitDx=0;exitDy=0;exitPerimeter=0;" edge="1" target="10" source="8" parent="3">
                    <mxGeometry relative="1" as="geometry">
                        <mxPoint x="300" y="220" as="sourcePoint"/>
                        <Array as="points">
                            <mxPoint x="250" y="250"/>
                        </Array>
                    </mxGeometry>
                </mxCell>
                <mxCell id="18" value="Creation compte&lt;br&gt;+ Creation Wallet" style="edgeLabel;html=1;align=center;verticalAlign=middle;resizable=0;points=[];" vertex="1" connectable="0" parent="9">
                    <mxGeometry x="0.3751" y="-1" relative="1" as="geometry">
                        <mxPoint as="offset"/>
                    </mxGeometry>
                </mxCell>
                <mxCell id="10" value="Dave" style="shape=image;html=1;verticalLabelPosition=bottom;verticalAlign=top;imageAspect=1;aspect=fixed;image=img/clipart/Gear_128x128.png;fontFamily=Helvetica;fontSize=12;fontColor=rgb(240, 240, 240);align=center;strokeColor=rgb(240, 240, 240);fillColor=rgb(42, 42, 42);" vertex="1" parent="3">
                    <mxGeometry x="360" y="300" width="50" height="30" as="geometry"/>
                </mxCell>
                <mxCell id="11" value="" style="aspect=fixed;html=1;points=[];align=center;image;fontSize=12;image=img/lib/azure2/identity/Users.svg;" vertex="1" parent="3">
                    <mxGeometry x="440" y="160" width="39" height="42.66" as="geometry"/>
                </mxCell>
                <mxCell id="19" value="Ad B2C" style="aspect=fixed;html=1;points=[];align=center;image;fontSize=12;image=img/lib/azure2/identity/Azure_AD_B2C.svg;" vertex="1" parent="3">
                    <mxGeometry x="200" y="380" width="52.55" height="48.74" as="geometry"/>
                </mxCell>
                <mxCell id="25" value="Vertical Flow Layout" style="swimlane;startSize=20;horizontal=1;childLayout=flowLayout;flowOrientation=north;resizable=0;interRankCellSpacing=50;containerType=tree;" vertex="1" parent="1">
                    <mxGeometry x="140" y="840" width="530" height="372" as="geometry"/>
                </mxCell>
                <mxCell id="26" value="appmodule" style="whiteSpace=wrap;html=1;" vertex="1" parent="25">
                    <mxGeometry x="224.5" y="40" width="100" height="40" as="geometry"/>
                </mxCell>
                <mxCell id="27" value="LoginModule" style="whiteSpace=wrap;html=1;" vertex="1" parent="25">
                    <mxGeometry x="229.5" y="130" width="90" height="40" as="geometry"/>
                </mxCell>
                <mxCell id="28" value="" style="html=1;curved=1;noEdgeStyle=1;orthogonal=1;" edge="1" parent="25" source="26" target="27">
                    <mxGeometry relative="1" as="geometry">
                        <Array as="points">
                            <mxPoint x="274.5" y="92"/>
                            <mxPoint x="274.5" y="118"/>
                        </Array>
                    </mxGeometry>
                </mxCell>
                <mxCell id="36" value="" style="html=1;curved=1;noEdgeStyle=1;orthogonal=1;" edge="1" target="37" source="27" parent="25">
                    <mxGeometry relative="1" as="geometry">
                        <mxPoint x="370" y="1240" as="sourcePoint"/>
                        <Array as="points">
                            <mxPoint x="274.5" y="182"/>
                            <mxPoint x="276.5" y="208"/>
                        </Array>
                    </mxGeometry>
                </mxCell>
                <mxCell id="37" value="homeModule" style="whiteSpace=wrap;html=1;" vertex="1" parent="25">
                    <mxGeometry x="231.5" y="220" width="90" height="40" as="geometry"/>
                </mxCell>
                <mxCell id="40" value="" style="html=1;curved=1;noEdgeStyle=1;orthogonal=1;" edge="1" target="41" source="37" parent="25">
                    <mxGeometry relative="1" as="geometry">
                        <mxPoint x="350" y="1290" as="sourcePoint"/>
                        <Array as="points">
                            <mxPoint x="246.5" y="272"/>
                            <mxPoint x="70" y="298"/>
                        </Array>
                    </mxGeometry>
                </mxCell>
                <mxCell id="41" value="Creation nouveau compte" style="whiteSpace=wrap;html=1;" vertex="1" parent="25">
                    <mxGeometry x="20" y="311.5" width="100" height="40" as="geometry"/>
                </mxCell>
                <mxCell id="42" value="" style="html=1;curved=1;noEdgeStyle=1;orthogonal=1;" edge="1" target="43" source="37" parent="25">
                    <mxGeometry relative="1" as="geometry">
                        <mxPoint x="330" y="1250" as="sourcePoint"/>
                        <Array as="points">
                            <mxPoint x="266.5" y="274"/>
                            <mxPoint x="210" y="298"/>
                        </Array>
                    </mxGeometry>
                </mxCell>
                <mxCell id="43" value="Consultation Informations Client" style="whiteSpace=wrap;html=1;" vertex="1" parent="25">
                    <mxGeometry x="150" y="311.4999999999999" width="120" height="40" as="geometry"/>
                </mxCell>
                <mxCell id="44" value="" style="html=1;curved=1;noEdgeStyle=1;orthogonal=1;" edge="1" target="45" source="37" parent="25">
                    <mxGeometry relative="1" as="geometry">
                        <mxPoint x="365" y="1210" as="sourcePoint"/>
                        <Array as="points">
                            <mxPoint x="286.5" y="274"/>
                            <mxPoint x="345" y="298"/>
                        </Array>
                    </mxGeometry>
                </mxCell>
                <mxCell id="45" value="Creation Wallet" style="whiteSpace=wrap;html=1;" vertex="1" parent="25">
                    <mxGeometry x="300" y="311.5" width="90" height="40" as="geometry"/>
                </mxCell>
                <mxCell id="46" value="" style="html=1;curved=1;noEdgeStyle=1;orthogonal=1;" edge="1" target="47" source="37" parent="25">
                    <mxGeometry relative="1" as="geometry">
                        <mxPoint x="405" y="1170" as="sourcePoint"/>
                        <Array as="points">
                            <mxPoint x="306.5" y="272"/>
                            <mxPoint x="465" y="298"/>
                        </Array>
                    </mxGeometry>
                </mxCell>
                <mxCell id="47" value="Demande de chequier" style="whiteSpace=wrap;html=1;" vertex="1" parent="25">
                    <mxGeometry x="420" y="311.5" width="90" height="40" as="geometry"/>
                </mxCell>
            </root>
        </mxGraphModel>
    </diagram>
</mxfile>